<?xml version="1.0" encoding="UTF-8" standalone="no"?>
<!-- Created with Inkscape (http://www.inkscape.org/) -->

<svg
   xmlns:dc="http://purl.org/dc/elements/1.1/"
   xmlns:cc="http://creativecommons.org/ns#"
   xmlns:rdf="http://www.w3.org/1999/02/22-rdf-syntax-ns#"
   xmlns:svg="http://www.w3.org/2000/svg"
   xmlns="http://www.w3.org/2000/svg"
   xmlns:sodipodi="http://sodipodi.sourceforge.net/DTD/sodipodi-0.dtd"
   xmlns:inkscape="http://www.inkscape.org/namespaces/inkscape"
   width="744.09448819"
   height="1052.3622047"
   id="svg2"
   version="1.1"
   inkscape:version="0.48.4 r9939"
   sodipodi:docname="Nowy dokument 1">
  <defs
     id="defs4" />
  <sodipodi:namedview
     id="base"
     pagecolor="#ffffff"
     bordercolor="#666666"
     borderopacity="1.0"
     inkscape:pageopacity="0.0"
     inkscape:pageshadow="2"
     inkscape:zoom="0.7"
     inkscape:cx="410.65924"
     inkscape:cy="822.73871"
     inkscape:document-units="px"
     inkscape:current-layer="layer5"
     showgrid="false"
     inkscape:window-width="1920"
     inkscape:window-height="1138"
     inkscape:window-x="-8"
     inkscape:window-y="-8"
     inkscape:window-maximized="1" />
  <metadata
     id="metadata7">
    <rdf:RDF>
      <cc:Work
         rdf:about="">
        <dc:format>image/svg+xml</dc:format>
        <dc:type
           rdf:resource="http://purl.org/dc/dcmitype/StillImage" />
        <dc:title></dc:title>
      </cc:Work>
    </rdf:RDF>
  </metadata>
  <g
     inkscape:groupmode="layer"
     id="layer5"
     inkscape:label="Warstwa#3">
    <path
       sodipodi:type="arc"
       style="fill:#000000;fill-opacity:1;fill-rule:nonzero;stroke:#000000;stroke-width:1;stroke-linecap:round;stroke-linejoin:miter;stroke-miterlimit:4;stroke-opacity:1;stroke-dasharray:none;stroke-dashoffset:0"
       sodipodi:cx="223.57143"
       sodipodi:cy="165.21933"
       sodipodi:rx="109.28571"
       sodipodi:ry="95.714287"
       d="m 332.85714,165.21933 a 109.28571,95.714287 0 1 1 -218.57143,0 109.28571,95.714287 0 1 1 218.57143,0 z"
       transform="matrix(0.99989919,0,0,1.044661,-27.120318,-7.3788622)" />
    <path
       sodipodi:type="arc"
       style="fill:#000000;fill-opacity:1;fill-rule:nonzero;stroke:#000000;stroke-width:1;stroke-linecap:round;stroke-linejoin:miter;stroke-miterlimit:4;stroke-opacity:1;stroke-dasharray:none;stroke-dashoffset:0"
       sodipodi:cx="609.28571"
       sodipodi:cy="176.6479"
       sodipodi:rx="93.571426"
       sodipodi:ry="100"
       d="m 702.85713,176.6479 a 93.571426,100 0 1 1 -187.14285,0 93.571426,100 0 1 1 187.14285,0 z"
       transform="matrix(1.0989791,0,0,0.99975902,-73.877985,-5.6717174)" />
  </g>
  <g
     inkscape:label="Layer 1"
     inkscape:groupmode="layer"
     id="layer1">
    <path
       sodipodi:type="arc"
       style="fill:#ffffff;fill-opacity:1;fill-rule:nonzero;stroke:#000000;stroke-width:1;stroke-linecap:round;stroke-linejoin:miter;stroke-miterlimit:4;stroke-opacity:1;stroke-dasharray:none;stroke-dashoffset:0"
       sodipodi:cx="160"
       sodipodi:cy="275.21933"
       sodipodi:rx="294.28571"
       sodipodi:ry="282.85715"
       d="m 454.28571,275.21933 a 294.28571,282.85715 0 1 1 -588.57142,0 294.28571,282.85715 0 1 1 588.57142,0 z"
       transform="matrix(1.1213005,0,0,0.9544844,204.87763,93.955343)" />
  </g>
  <g
     inkscape:groupmode="layer"
     id="layer2"
     inkscape:label="Warstwa">
    <path
       sodipodi:type="arc"
       style="fill:#000000;fill-opacity:1;fill-rule:nonzero;stroke:#000000;stroke-width:1;stroke-linecap:round;stroke-linejoin:miter;stroke-miterlimit:4;stroke-opacity:1;stroke-dasharray:none;stroke-dashoffset:0"
       id="path2988"
       sodipodi:cx="190"
       sodipodi:cy="198.07646"
       sodipodi:rx="108.57143"
       sodipodi:ry="102.85714"
       d="m 298.57143,198.07646 a 108.57143,102.85714 0 1 1 -217.142856,0 108.57143,102.85714 0 1 1 217.142856,0 z"
       transform="translate(52.857143,58.571429)" />
    <path
       sodipodi:type="arc"
       style="fill:#000000;fill-opacity:1;fill-rule:nonzero;stroke:#000000;stroke-width:1;stroke-linecap:round;stroke-linejoin:miter;stroke-miterlimit:4;stroke-opacity:1;stroke-dasharray:none;stroke-dashoffset:0"
       id="path2988-1"
       sodipodi:cx="190"
       sodipodi:cy="198.07646"
       sodipodi:rx="108.57143"
       sodipodi:ry="102.85714"
       d="m 298.57143,198.07646 a 108.57143,102.85714 0 1 1 -217.142856,0 108.57143,102.85714 0 1 1 217.142856,0 z"
       transform="translate(322.85715,58.571432)" />
  </g>
  <g
     inkscape:groupmode="layer"
     id="layer6"
     inkscape:label="Warstwa#4">
    <path
       sodipodi:type="arc"
       style="fill:#ffffff;fill-opacity:1;fill-rule:nonzero;stroke:#000000;stroke-width:1;stroke-linecap:round;stroke-linejoin:miter;stroke-miterlimit:4;stroke-opacity:1;stroke-dasharray:none;stroke-dashoffset:0"
       id="path3072"
       sodipodi:cx="382.85715"
       sodipodi:cy="458.07648"
       sodipodi:rx="147.14285"
       sodipodi:ry="124.28571"
       d="m 530,458.07648 a 147.14285,124.28571 0 1 1 -294.28571,0 147.14285,124.28571 0 1 1 294.28571,0 z"
       transform="matrix(1.1064014,0,0,1.1259695,-45.022274,-73.417971)" />
    <path
       sodipodi:type="arc"
       style="fill:#000000;fill-opacity:1;fill-rule:nonzero;stroke:#000000;stroke-width:1;stroke-linecap:round;stroke-linejoin:miter;stroke-miterlimit:4;stroke-opacity:1;stroke-dasharray:none;stroke-dashoffset:0"
       id="path3074"
       sodipodi:cx="376.42856"
       sodipodi:cy="415.93362"
       sodipodi:rx="70.714287"
       sodipodi:ry="55"
       d="m 447.14285,415.93362 a 70.714287,55 0 1 1 -141.42858,0 70.714287,55 0 1 1 141.42858,0 z" />
  </g>
  <g
     inkscape:groupmode="layer"
     id="layer8"
     inkscape:label="Warstwa#5">
    <path
       style="fill:#000000;stroke:#000000;stroke-width:1px;stroke-linecap:butt;stroke-linejoin:miter;stroke-opacity:1"
       d="m 270,493.79075 c 42.23583,29.86486 121.6236,83.65472 102.85714,-12.85714 l 18.57143,0 c -24.40788,97.07486 47.2006,48.3392 108.57143,24.28572 -36.00113,23.63609 -42.87377,37.48924 -120,39.99999 -65.97894,-0.93485 -106.74958,-42.21428 -110,-51.42857 z"
       inkscape:connector-curvature="0"
       sodipodi:nodetypes="cccccc" />
  </g>
  <g
     inkscape:groupmode="layer"
     id="layer3"
     inkscape:label="Warstwa#1">
    <path
       sodipodi:type="arc"
       style="fill:#ffffff;fill-opacity:1;fill-rule:nonzero;stroke:#000000;stroke-width:1;stroke-linecap:round;stroke-linejoin:miter;stroke-miterlimit:4;stroke-opacity:1;stroke-dasharray:none;stroke-dashoffset:0"
       id="path3015"
       sodipodi:cx="260"
       sodipodi:cy="115.21932"
       sodipodi:rx="62.857143"
       sodipodi:ry="62.857143"
       d="m 322.85714,115.21932 a 62.857143,62.857143 0 1 1 -125.71428,0 62.857143,62.857143 0 1 1 125.71428,0 z"
       transform="translate(-18.571429,140)" />
    <path
       transform="translate(252.85715,144.28572)"
       sodipodi:type="arc"
       style="fill:#ffffff;fill-opacity:1;fill-rule:nonzero;stroke:#000000;stroke-width:1;stroke-linecap:round;stroke-linejoin:miter;stroke-miterlimit:4;stroke-opacity:1;stroke-dasharray:none;stroke-dashoffset:0"
       id="path3015-7"
       sodipodi:cx="260"
       sodipodi:cy="115.21932"
       sodipodi:rx="62.857143"
       sodipodi:ry="62.857143"
       d="m 322.85714,115.21932 a 62.857143,62.857143 0 1 1 -125.71428,0 62.857143,62.857143 0 1 1 125.71428,0 z" />
  </g>
  <g
     inkscape:groupmode="layer"
     id="layer4"
     inkscape:label="Warstwa#2">
    <path
       sodipodi:type="arc"
       style="fill:#000000;fill-opacity:1;fill-rule:nonzero;stroke:#000000;stroke-width:1;stroke-linecap:round;stroke-linejoin:miter;stroke-miterlimit:4;stroke-opacity:1;stroke-dasharray:none;stroke-dashoffset:0"
       id="path3048"
       sodipodi:cx="237.14285"
       sodipodi:cy="255.21933"
       sodipodi:rx="42.857143"
       sodipodi:ry="41.42857"
       d="m 280,255.21933 a 42.857143,41.42857 0 1 1 -85.71429,0 42.857143,41.42857 0 1 1 85.71429,0 z" />
    <path
       sodipodi:type="arc"
       style="fill:#000000;fill-opacity:1;fill-rule:nonzero;stroke:#000000;stroke-width:1;stroke-linecap:round;stroke-linejoin:miter;stroke-miterlimit:4;stroke-opacity:1;stroke-dasharray:none;stroke-dashoffset:0"
       id="path3050"
       sodipodi:cx="507.14285"
       sodipodi:cy="262.36218"
       sodipodi:rx="44.285713"
       sodipodi:ry="42.857143"
       d="m 551.42857,262.36218 a 44.285713,42.857143 0 1 1 -88.57143,0 44.285713,42.857143 0 1 1 88.57143,0 z" />
  </g>
</svg>
